# xmcd CD database file
#
# Track frame offsets:
#	150
#	19659
#	29525
#	50481
#	59507
#	89602
#	102252
#	117948
#	138660
#	169420
#	178061
#
# Disc length: 2665 seconds
#
# Revision: 0
# Processed by: cddbd v1.5.2PL0 Copyright (c) Steve Scherf et al.
# Submitted via: CDex 1.51
#
DISCID=9f0a670b
DTITLE=Rob Costlow - Reconstruction
DYEAR=2008
DGENRE=New Age
TTITLE0=Baby Girl Part 1 Awakenings
TTITLE1=Baby Girl Part 2 Play
TTITLE2=Baby Girl Part 3 Sweetpea
TTITLE3=Reconstruction
TTITLE4=Communion
TTITLE5=Falling (for her)
TTITLE6=River
TTITLE7=Sleepaway
TTITLE8=Forbidden
TTITLE9=Enigma
TTITLE10=Tulip Trees (bonus track)
EXTD=YEAR: 2008
EXTT0=
EXTT1=
EXTT2=
EXTT3=
EXTT4=
EXTT5=
EXTT6=
EXTT7=
EXTT8=
EXTT9=
EXTT10=
PLAYORDER=
